<?xml version="1.0" standalone="no"?>
<!DOCTYPE svg PUBLIC "-//W3C//DTD SVG 20010904//EN"
 "http://www.w3.org/TR/2001/REC-SVG-20010904/DTD/svg10.dtd">
<svg version="1.0" xmlns="http://www.w3.org/2000/svg"
 width="333.000000pt" height="337.000000pt" viewBox="0 0 333.000000 337.000000"
 preserveAspectRatio="xMidYMid meet">

<g transform="translate(0.000000,337.000000) scale(0.100000,-0.100000)"
fill="#000000" stroke="none">
<path d="M1 2618 c1 -414 4 -739 6 -723 20 165 92 403 165 548 241 482 684
813 1213 908 l100 17 -742 1 -743 1 1 -752z"/>
<path d="M1945 3351 c529 -95 972 -426 1213 -908 73 -145 145 -383 165 -548 2
-16 5 309 6 723 l1 752 -742 -1 -743 -1 100 -17z"/>
<path d="M1887 3191 c194 -72 336 -202 433 -396 69 -140 84 -213 84 -420 0
-168 -2 -186 -28 -270 -94 -307 -313 -502 -656 -582 -156 -37 -153 -30 -46
-100 223 -148 340 -292 671 -823 70 -113 129 -206 130 -208 8 -10 171 123 266
217 226 227 367 494 425 806 28 147 26 432 -4 571 -31 146 -65 244 -131 379
-78 158 -163 277 -291 405 -158 158 -330 271 -535 351 -93 37 -237 74 -315 83
l-55 6 52 -19z"/>
<path d="M1273 3170 c-269 -69 -490 -197 -698 -405 -133 -132 -214 -243 -293
-400 -217 -435 -213 -949 13 -1383 76 -146 153 -250 280 -377 370 -373 894
-526 1413 -414 53 12 99 23 101 24 4 5 -331 542 -443 710 -190 287 -293 397
-500 535 l-79 53 89 18 c386 78 632 294 717 627 31 123 30 369 -1 486 -49 179
-163 360 -284 451 -65 49 -168 105 -190 105 -7 -1 -63 -14 -125 -30z"/>
<path d="M1 753 l-1 -753 743 1 742 1 -100 17 c-529 95 -972 426 -1213 908
-73 145 -145 383 -165 548 -2 17 -5 -309 -6 -722z"/>
<path d="M3320 1469 c0 -55 -41 -230 -81 -347 -200 -578 -689 -995 -1294
-1103 l-100 -17 743 -1 742 -1 0 750 c0 413 -2 750 -5 750 -3 0 -5 -14 -5 -31z"/>
</g>
</svg>
